<?xml version="1.0" encoding="utf-8"?>
<svg version="1.1" id="Layer_1" xmlns="http://www.w3.org/2000/svg" xmlns:xlink="http://www.w3.org/1999/xlink" x="0px" y="0px"
	 viewBox="0 0 165.7 227.4" style="enable-background:new 0 0 165.7 227.4;" xml:space="preserve">
<style type="text/css">
	.st0{fill:#30AA64;}
	.st1{fill:none;}
</style>
<g>
	<path class="st0" d="M32.9,55.7c12.6,0,22.9-10.3,22.9-22.9C55.7,20.3,45.5,10,32.9,10C20.3,10,10,20.3,10,32.9
		C10,45.5,20.3,55.7,32.9,55.7z M32.9,17.1c8.7,0,15.8,7.1,15.8,15.8s-7.1,15.8-15.8,15.8s-15.8-7.1-15.8-15.8S24.2,17.1,32.9,17.1z
		"/>
	<path class="st0" d="M32.9,105.7c12.6,0,22.9-10.3,22.9-22.9C55.7,70.3,45.5,60,32.9,60C20.3,60,10,70.3,10,82.9
		C10,95.5,20.3,105.7,32.9,105.7z M32.9,67.1c8.7,0,15.8,7.1,15.8,15.8s-7.1,15.8-15.8,15.8s-15.8-7.1-15.8-15.8
		S24.2,67.1,32.9,67.1z"/>
	<path class="st0" d="M82.9,55.7c12.6,0,22.9-10.3,22.9-22.9c0-12.6-10.3-22.9-22.9-22.9S60,20.3,60,32.9
		C60,45.5,70.3,55.7,82.9,55.7z M82.9,17.1c8.7,0,15.8,7.1,15.8,15.8s-7.1,15.8-15.8,15.8c-8.7,0-15.8-7.1-15.8-15.8
		S74.2,17.1,82.9,17.1z"/>
	<path class="st0" d="M82.9,105.7c12.6,0,22.9-10.3,22.9-22.9c0-12.6-10.3-22.9-22.9-22.9S60,70.3,60,82.9
		C60,95.5,70.3,105.7,82.9,105.7z M82.9,67.1c8.7,0,15.8,7.1,15.8,15.8s-7.1,15.8-15.8,15.8c-8.7,0-15.8-7.1-15.8-15.8
		S74.2,67.1,82.9,67.1z"/>
	<path class="st0" d="M132.9,55.7c12.6,0,22.9-10.3,22.9-22.9c0-12.6-10.3-22.9-22.9-22.9C120.3,10,110,20.3,110,32.9
		C110,45.5,120.3,55.7,132.9,55.7z M132.9,17.1c8.7,0,15.8,7.1,15.8,15.8s-7.1,15.8-15.8,15.8s-15.8-7.1-15.8-15.8
		S124.2,17.1,132.9,17.1z"/>
	<path class="st0" d="M132.9,60C120.3,60,110,70.3,110,82.9c0,12.6,10.3,22.9,22.9,22.9c12.6,0,22.9-10.3,22.9-22.9
		C155.7,70.3,145.5,60,132.9,60z M132.9,98.6c-8.7,0-15.8-7.1-15.8-15.8s7.1-15.8,15.8-15.8s15.8,7.1,15.8,15.8
		S141.6,98.6,132.9,98.6z"/>
	<path class="st0" d="M132.9,110c-10.6,0-19.6,7.3-22.2,17.2c-0.4,1.2-1.5,2.1-2.8,2.1c-1.3,0-2.5-0.9-2.8-2.1
		c-2.5-9.9-11.5-17.2-22.2-17.2c-10.6,0-19.6,7.3-22.2,17.2c-0.4,1.2-1.5,2.1-2.8,2.1c-1.3,0-2.5-0.9-2.8-2.1
		c-2.5-9.9-11.5-17.2-22.2-17.2C20.3,110,10,120.3,10,132.9c0,12.6,10.3,22.9,22.9,22.9c10.6,0,19.6-7.3,22.2-17.2
		c0.4-1.2,1.5-2.1,2.8-2.1c1.3,0,2.5,0.9,2.8,2.1c2.5,9.9,11.5,17.2,22.2,17.2c10.6,0,19.6-7.3,22.2-17.2c0.4-1.2,1.5-2.1,2.8-2.1
		c1.3,0,2.5,0.9,2.8,2.1c2.5,9.9,11.5,17.2,22.2,17.2c12.6,0,22.9-10.3,22.9-22.9C155.7,120.3,145.5,110,132.9,110z M147.9,135.4
		l-20,11.9c-2,1.2-4.5-0.2-4.5-2.5V121c0-2.3,2.5-3.7,4.5-2.5l20,11.9C149.8,131.5,149.8,134.3,147.9,135.4z"/>
	<rect x="10" y="165.7" class="st1" width="145.7" height="53.2"/>
	<path class="st0" d="M30.3,175.7c0,5.8-4,9.3-9.3,9.3c-5.9,0-10.2-4.4-10.2-9.8c0-5.5,4.3-9.9,9.9-9.9c3.6,0,6.7,1.8,8.3,4.3
		l-3.7,2.1c-0.8-1.2-2.5-2.2-4.6-2.2c-3.2,0-5.6,2.3-5.6,5.7c0,3.2,2.3,5.6,5.9,5.6c2.5,0,4.2-1.1,4.8-2.9h-5v-3.8h9.5V175.7z"/>
	<path class="st0" d="M41.3,170.9v4.6c-1.7-0.3-4,0.4-4,3.1v6.1h-4v-13.5h4v2.4C37.8,171.7,39.6,170.9,41.3,170.9z"/>
	<path class="st0" d="M50.2,181.4c1.1,0,2.1-0.4,2.6-1l3.2,1.9c-1.3,1.8-3.3,2.8-5.9,2.8c-4.6,0-7.5-3.1-7.5-7.1
		c0-4,2.9-7.1,7.2-7.1c3.9,0,6.9,3,6.9,7.1c0,0.6-0.1,1.1-0.2,1.6h-9.6C47.5,180.9,48.7,181.4,50.2,181.4z M52.7,176.5
		c-0.4-1.6-1.6-2.1-2.9-2.1c-1.5,0-2.6,0.8-2.9,2.1H52.7z"/>
	<path class="st0" d="M66.3,181.4c1.1,0,2.1-0.4,2.6-1l3.2,1.9c-1.3,1.8-3.3,2.8-5.9,2.8c-4.6,0-7.5-3.1-7.5-7.1
		c0-4,2.9-7.1,7.2-7.1c3.9,0,6.9,3,6.9,7.1c0,0.6-0.1,1.1-0.2,1.6H63C63.5,180.9,64.8,181.4,66.3,181.4z M68.8,176.5
		c-0.4-1.6-1.6-2.1-2.9-2.1c-1.5,0-2.6,0.8-2.9,2.1H68.8z"/>
	<path class="st0" d="M88.6,176.3v8.3h-4v-7.7c0-1.7-1.1-2.5-2.3-2.5c-1.5,0-2.5,0.9-2.5,2.8v7.4h-4v-13.5h4v1.3
		c0.7-1,2.1-1.6,3.9-1.6C86.3,170.7,88.6,172.7,88.6,176.3z"/>
	<path class="st0" d="M103.1,180.5v4.2H92.1v-18.9h4.3v14.7H103.1z"/>
	<path class="st0" d="M105.1,167.5c0-1.3,1.1-2.4,2.4-2.4c1.3,0,2.4,1.1,2.4,2.4c0,1.3-1.1,2.4-2.4,2.4
		C106.2,169.9,105.1,168.8,105.1,167.5z M105.5,171.1h4v13.5h-4V171.1z"/>
	<path class="st0" d="M126.9,171.1v12.8c0,4.5-3.5,6.5-7.1,6.5c-2.8,0-5.2-1.1-6.4-3.3l3.5-2c0.5,0.9,1.3,1.7,3.1,1.7
		c1.9,0,3-1,3-2.9v-1.2c-0.9,1.1-2.2,1.8-3.9,1.8c-3.8,0-6.6-3.1-6.6-6.9c0-3.7,2.8-6.9,6.6-6.9c1.8,0,3,0.6,3.9,1.8v-1.4H126.9z
		 M123,177.6c0-1.9-1.3-3.1-3.3-3.1c-1.9,0-3.3,1.3-3.3,3.1c0,1.9,1.3,3.1,3.3,3.1C121.6,180.7,123,179.5,123,177.6z"/>
	<path class="st0" d="M143.4,176.3v8.3h-4v-7.7c0-1.7-1.1-2.5-2.3-2.5c-1.5,0-2.5,0.9-2.5,2.8v7.4h-4v-18.9h4v6.7
		c0.7-1,2.1-1.6,3.9-1.6C141.1,170.7,143.4,172.7,143.4,176.3z"/>
	<path class="st0" d="M151.9,175v4.8c0,1.2,1,1.3,2.8,1.2v3.7c-5.3,0.5-6.8-1.1-6.8-4.8V175h-2.2v-3.9h2.2v-2.6l4-1.2v3.8h2.8v3.9
		H151.9z"/>
	<path class="st0" d="M83.8,207.6c0,5.3-4,9.4-9.2,9.4H67v-18.9h7.6C79.8,198.1,83.8,202.2,83.8,207.6z M79.6,207.6
		c0-3.2-2.1-5.3-5-5.3h-3.2v10.6h3.2C77.6,212.9,79.6,210.8,79.6,207.6z"/>
	<path class="st0" d="M85.7,199.9c0-1.3,1.1-2.4,2.4-2.4c1.3,0,2.4,1.1,2.4,2.4c0,1.3-1.1,2.4-2.4,2.4
		C86.8,202.3,85.7,201.2,85.7,199.9z M86.1,203.5h4V217h-4V203.5z"/>
	<path class="st0" d="M103.4,213c0,3.1-2.7,4.4-5.6,4.4c-2.7,0-4.8-1-5.8-3.2l3.5-2c0.4,1,1.1,1.6,2.3,1.6c1,0,1.5-0.3,1.5-0.8
		c0-1.5-6.6-0.7-6.6-5.4c0-2.9,2.5-4.4,5.3-4.4c2.2,0,4.1,1,5.3,2.9l-3.5,1.9c-0.4-0.7-0.9-1.2-1.8-1.2c-0.7,0-1.1,0.3-1.1,0.8
		C96.8,209,103.4,208,103.4,213z"/>
	<path class="st0" d="M110.2,207.4v4.8c0,1.2,1,1.3,2.8,1.2v3.7c-5.3,0.5-6.8-1.1-6.8-4.8v-4.8H104v-3.9h2.2V201l4-1.2v3.8h2.8v3.9
		H110.2z"/>
	<path class="st0" d="M123.6,203.3v4.6c-1.7-0.3-4,0.4-4,3.1v6.1h-4v-13.5h4v2.4C120.1,204.1,121.9,203.3,123.6,203.3z"/>
	<path class="st0" d="M125.1,199.9c0-1.3,1.1-2.4,2.4-2.4c1.3,0,2.4,1.1,2.4,2.4c0,1.3-1.1,2.4-2.4,2.4
		C126.2,202.3,125.1,201.2,125.1,199.9z M125.5,203.5h4V217h-4V203.5z"/>
	<path class="st0" d="M131.9,210.3c0-4,3.1-7.1,7.2-7.1c2.6,0,4.9,1.4,6.1,3.5l-3.5,2.1c-0.5-0.9-1.4-1.5-2.6-1.5
		c-1.8,0-3.1,1.3-3.1,3.1s1.3,3.1,3.1,3.1c1.2,0,2.2-0.6,2.6-1.5l3.5,2c-1.2,2.1-3.5,3.5-6.1,3.5
		C134.9,217.4,131.9,214.3,131.9,210.3z"/>
	<path class="st0" d="M151.9,207.4v4.8c0,1.2,1,1.3,2.8,1.2v3.7c-5.3,0.5-6.8-1.1-6.8-4.8v-4.8h-2.2v-3.9h2.2V201l4-1.2v3.8h2.8v3.9
		H151.9z"/>
</g>
</svg>
