<?xml version="1.0" encoding="utf-8"?>
<!-- Generator: Adobe Illustrator 22.1.0, SVG Export Plug-In . SVG Version: 6.00 Build 0)  -->
<svg version="1.2" baseProfile="tiny" id="Layer_1" xmlns="http://www.w3.org/2000/svg" xmlns:xlink="http://www.w3.org/1999/xlink"
	 x="0px" y="0px" viewBox="0 0 981.8 165.7" xml:space="preserve">
<g>
	<path fill="#30AA64" d="M32.9,55.7c12.6,0,22.9-10.3,22.9-22.9C55.7,20.3,45.5,10,32.9,10C20.3,10,10,20.3,10,32.9
		C10,45.5,20.3,55.7,32.9,55.7z M32.9,17.1c8.7,0,15.8,7.1,15.8,15.8s-7.1,15.8-15.8,15.8s-15.8-7.1-15.8-15.8S24.2,17.1,32.9,17.1z
		"/>
	<path fill="#30AA64" d="M32.9,105.7c12.6,0,22.9-10.3,22.9-22.9C55.7,70.3,45.5,60,32.9,60C20.3,60,10,70.3,10,82.9
		C10,95.5,20.3,105.7,32.9,105.7z M32.9,67.1c8.7,0,15.8,7.1,15.8,15.8s-7.1,15.8-15.8,15.8s-15.8-7.1-15.8-15.8
		S24.2,67.1,32.9,67.1z"/>
	<path fill="#30AA64" d="M82.9,55.7c12.6,0,22.9-10.3,22.9-22.9c0-12.6-10.3-22.9-22.9-22.9S60,20.3,60,32.9
		C60,45.5,70.3,55.7,82.9,55.7z M82.9,17.1c8.7,0,15.8,7.1,15.8,15.8s-7.1,15.8-15.8,15.8c-8.7,0-15.8-7.1-15.8-15.8
		S74.2,17.1,82.9,17.1z"/>
	<path fill="#30AA64" d="M82.9,105.7c12.6,0,22.9-10.3,22.9-22.9c0-12.6-10.3-22.9-22.9-22.9S60,70.3,60,82.9
		C60,95.5,70.3,105.7,82.9,105.7z M82.9,67.1c8.7,0,15.8,7.1,15.8,15.8s-7.1,15.8-15.8,15.8c-8.7,0-15.8-7.1-15.8-15.8
		S74.2,67.1,82.9,67.1z"/>
	<path fill="#30AA64" d="M132.9,55.7c12.6,0,22.9-10.3,22.9-22.9c0-12.6-10.3-22.9-22.9-22.9C120.3,10,110,20.3,110,32.9
		C110,45.5,120.3,55.7,132.9,55.7z M132.9,17.1c8.7,0,15.8,7.1,15.8,15.8s-7.1,15.8-15.8,15.8s-15.8-7.1-15.8-15.8
		S124.2,17.1,132.9,17.1z"/>
	<path fill="#30AA64" d="M132.9,60C120.3,60,110,70.3,110,82.9c0,12.6,10.3,22.9,22.9,22.9c12.6,0,22.9-10.3,22.9-22.9
		C155.7,70.3,145.5,60,132.9,60z M132.9,98.6c-8.7,0-15.8-7.1-15.8-15.8s7.1-15.8,15.8-15.8s15.8,7.1,15.8,15.8
		S141.6,98.6,132.9,98.6z"/>
	<path fill="#30AA64" d="M132.9,110c-10.6,0-19.6,7.3-22.2,17.2c-0.4,1.2-1.5,2.1-2.8,2.1c-1.3,0-2.5-0.9-2.8-2.1
		c-2.5-9.9-11.5-17.2-22.2-17.2c-10.6,0-19.6,7.3-22.2,17.2c-0.4,1.2-1.5,2.1-2.8,2.1c-1.3,0-2.5-0.9-2.8-2.1
		c-2.5-9.9-11.5-17.2-22.2-17.2C20.3,110,10,120.3,10,132.9c0,12.6,10.3,22.9,22.9,22.9c10.6,0,19.6-7.3,22.2-17.2
		c0.4-1.2,1.5-2.1,2.8-2.1c1.3,0,2.5,0.9,2.8,2.1c2.5,9.9,11.5,17.2,22.2,17.2c10.6,0,19.6-7.3,22.2-17.2c0.4-1.2,1.5-2.1,2.8-2.1
		c1.3,0,2.5,0.9,2.8,2.1c2.5,9.9,11.5,17.2,22.2,17.2c12.6,0,22.9-10.3,22.9-22.9C155.7,120.3,145.5,110,132.9,110z M147.9,135.4
		l-20,11.9c-2,1.2-4.5-0.2-4.5-2.5V121c0-2.3,2.5-3.7,4.5-2.5l20,11.9C149.8,131.5,149.8,134.3,147.9,135.4z"/>
</g>
<g>
	<rect x="158.7" y="52" fill="none" width="807.2" height="145.7"/>
	<path fill="#30AA64" d="M241.2,85.3c0,19.3-13.4,31-31,31c-19.8,0-34-14.6-34-32.7c0-18.3,14.5-32.8,33-32.8
		c12.1,0,22.2,5.9,27.5,14.4l-12.2,7c-2.6-4.1-8.3-7.4-15.4-7.4c-10.6,0-18.5,7.8-18.5,18.9c0,10.7,7.6,18.5,19.8,18.5
		c8.4,0,13.9-3.7,16.1-9.7h-16.8V79.9h31.6V85.3z"/>
	<path fill="#30AA64" d="M275.9,69.1v15.3c-5.6-0.9-13.5,1.3-13.5,10.3V115h-13.5V70h13.5v8C264.2,72,270.2,69.1,275.9,69.1z"/>
	<path fill="#30AA64" d="M303.7,104.2c3.7,0,6.8-1.4,8.6-3.4l10.8,6.2c-4.4,6.1-11.1,9.3-19.6,9.3c-15.4,0-24.9-10.3-24.9-23.8
		s9.7-23.8,23.9-23.8c13.1,0,22.9,10.2,22.9,23.8c0,1.9-0.2,3.7-0.5,5.4h-31.9C294.6,102.6,298.7,104.2,303.7,104.2z M311.9,87.8
		c-1.4-5.2-5.5-7.1-9.5-7.1c-5.1,0-8.5,2.5-9.8,7.1H311.9z"/>
	<path fill="#30AA64" d="M355.4,104.2c3.7,0,6.8-1.4,8.6-3.4l10.8,6.2c-4.4,6.1-11.1,9.3-19.6,9.3c-15.4,0-24.9-10.3-24.9-23.8
		s9.7-23.8,23.9-23.8c13.1,0,22.9,10.2,22.9,23.8c0,1.9-0.2,3.7-0.5,5.4h-31.9C346.3,102.6,350.5,104.2,355.4,104.2z M363.7,87.8
		c-1.4-5.2-5.5-7.1-9.5-7.1c-5.1,0-8.5,2.5-9.8,7.1H363.7z"/>
	<path fill="#30AA64" d="M428,87.4V115h-13.5V89.4c0-5.6-3.5-8.2-7.8-8.2c-5,0-8.4,2.9-8.4,9.3V115h-13.5V70h13.5v4.2
		c2.4-3.3,6.9-5.5,12.9-5.5C420.2,68.7,428,75.2,428,87.4z"/>
	<path fill="#30AA64" d="M474.6,101.1V115h-36.9V52h14.4v49.1H474.6z"/>
	<path fill="#30AA64" d="M479.1,57.9c0-4.4,3.7-8.1,8.1-8.1c4.4,0,8.1,3.7,8.1,8.1s-3.7,8.1-8.1,8.1C482.8,66,479.1,62.4,479.1,57.9
		z M480.4,70h13.5v45h-13.5V70z"/>
	<path fill="#30AA64" d="M550,70v42.7c0,15.1-11.8,21.5-23.8,21.5c-9.4,0-17.2-3.5-21.3-10.9l11.5-6.7c1.7,3.1,4.3,5.7,10.3,5.7
		c6.3,0,10.2-3.2,10.2-9.6v-4.1c-3,3.7-7.3,5.8-13.1,5.8c-12.8,0-22.1-10.4-22.1-22.9c0-12.4,9.4-22.9,22.1-22.9
		c5.8,0,10.2,2.2,13.1,5.8V70H550z M536.8,91.6c0-6.2-4.5-10.4-10.9-10.4s-10.9,4.2-10.9,10.4c0,6.2,4.5,10.4,10.9,10.4
		S536.8,97.8,536.8,91.6z"/>
	<path fill="#30AA64" d="M603.1,87.4V115h-13.5V89.4c0-5.6-3.5-8.2-7.8-8.2c-5,0-8.4,2.9-8.4,9.3V115h-13.5V52h13.5v22.2
		c2.4-3.3,6.9-5.5,12.9-5.5C595.3,68.7,603.1,75.2,603.1,87.4z"/>
	<path fill="#30AA64" d="M629.5,83v15.9c0,3.9,3.3,4.2,9.3,3.9V115c-17.6,1.8-22.8-3.5-22.8-16.1V83h-7.2V70h7.2v-8.5l13.5-4V70h9.3
		v13H629.5z"/>
	<path fill="#30AA64" d="M726,83.5c0,17.8-13.2,31.5-30.6,31.5h-25.2V52h25.2C712.8,52,726,65.7,726,83.5z M712.2,83.5
		c0-10.8-6.8-17.6-16.7-17.6h-10.8v35.3h10.8C705.3,101.1,712.2,94.3,712.2,83.5z"/>
	<path fill="#30AA64" d="M732.3,57.9c0-4.4,3.7-8.1,8.1-8.1c4.4,0,8.1,3.7,8.1,8.1s-3.7,8.1-8.1,8.1C736,66,732.3,62.4,732.3,57.9z
		 M733.7,70h13.5v45h-13.5V70z"/>
	<path fill="#30AA64" d="M791.5,101.5c0,10.3-9,14.8-18.7,14.8c-9,0-15.8-3.4-19.3-10.7l11.7-6.7c1.2,3.4,3.7,5.3,7.7,5.3
		c3.2,0,4.9-1,4.9-2.8c0-4.9-22.1-2.3-22.1-17.9c0-9.8,8.3-14.8,17.6-14.8c7.3,0,13.8,3.2,17.5,9.6l-11.5,6.2c-1.3-2.3-3.1-4-6-4
		c-2.3,0-3.8,0.9-3.8,2.5C769.4,88.3,791.5,84.9,791.5,101.5z"/>
	<path fill="#30AA64" d="M814,83v15.9c0,3.9,3.3,4.2,9.3,3.9V115c-17.6,1.8-22.8-3.5-22.8-16.1V83h-7.2V70h7.2v-8.5l13.5-4V70h9.3
		v13H814z"/>
	<path fill="#30AA64" d="M858.9,69.1v15.3c-5.6-0.9-13.5,1.3-13.5,10.3V115h-13.5V70h13.5v8C847.2,72,853.2,69.1,858.9,69.1z"/>
	<path fill="#30AA64" d="M863.8,57.9c0-4.4,3.7-8.1,8.1-8.1c4.4,0,8.1,3.7,8.1,8.1s-3.7,8.1-8.1,8.1C867.5,66,863.8,62.4,863.8,57.9
		z M865.2,70h13.5v45h-13.5V70z"/>
	<path fill="#30AA64" d="M886.3,92.5c0-13.4,10.2-23.8,23.8-23.8c8.7,0,16.5,4.6,20.3,11.5l-11.8,6.8c-1.5-3.2-4.8-5-8.7-5
		c-5.8,0-10.2,4.2-10.2,10.4s4.3,10.4,10.2,10.4c4,0,7.3-1.9,8.7-5l11.8,6.8c-3.9,7-11.5,11.6-20.3,11.6
		C896.5,116.3,886.3,105.9,886.3,92.5z"/>
	<path fill="#30AA64" d="M953,83v15.9c0,3.9,3.3,4.2,9.3,3.9V115c-17.6,1.8-22.8-3.5-22.8-16.1V83h-7.2V70h7.2v-8.5l13.5-4V70h9.3
		v13H953z"/>
</g>
<g>
</g>
<g>
</g>
<g>
</g>
<g>
</g>
<g>
</g>
<g>
</g>
</svg>
