<?xml version="1.0" encoding="utf-8"?>
<!-- Generator: Adobe Illustrator 22.1.0, SVG Export Plug-In . SVG Version: 6.00 Build 0)  -->
<svg version="1.2" baseProfile="tiny" id="Layer_1" xmlns="http://www.w3.org/2000/svg" xmlns:xlink="http://www.w3.org/1999/xlink"
	 x="0px" y="0px" viewBox="0 0 165.7 165.7" xml:space="preserve">
<g>
	<path fill="#30AA64" d="M32.9,55.7c12.6,0,22.9-10.3,22.9-22.9C55.7,20.3,45.5,10,32.9,10C20.3,10,10,20.3,10,32.9
		C10,45.5,20.3,55.7,32.9,55.7z M32.9,17.1c8.7,0,15.8,7.1,15.8,15.8s-7.1,15.8-15.8,15.8s-15.8-7.1-15.8-15.8S24.2,17.1,32.9,17.1z
		"/>
	<path fill="#30AA64" d="M32.9,105.7c12.6,0,22.9-10.3,22.9-22.9C55.7,70.3,45.5,60,32.9,60C20.3,60,10,70.3,10,82.9
		C10,95.5,20.3,105.7,32.9,105.7z M32.9,67.1c8.7,0,15.8,7.1,15.8,15.8s-7.1,15.8-15.8,15.8s-15.8-7.1-15.8-15.8
		S24.2,67.1,32.9,67.1z"/>
	<path fill="#30AA64" d="M82.9,55.7c12.6,0,22.9-10.3,22.9-22.9c0-12.6-10.3-22.9-22.9-22.9S60,20.3,60,32.9
		C60,45.5,70.3,55.7,82.9,55.7z M82.9,17.1c8.7,0,15.8,7.1,15.8,15.8s-7.1,15.8-15.8,15.8c-8.7,0-15.8-7.1-15.8-15.8
		S74.2,17.1,82.9,17.1z"/>
	<path fill="#30AA64" d="M82.9,105.7c12.6,0,22.9-10.3,22.9-22.9c0-12.6-10.3-22.9-22.9-22.9S60,70.3,60,82.9
		C60,95.5,70.3,105.7,82.9,105.7z M82.9,67.1c8.7,0,15.8,7.1,15.8,15.8s-7.1,15.8-15.8,15.8c-8.7,0-15.8-7.1-15.8-15.8
		S74.2,67.1,82.9,67.1z"/>
	<path fill="#30AA64" d="M132.9,55.7c12.6,0,22.9-10.3,22.9-22.9c0-12.6-10.3-22.9-22.9-22.9C120.3,10,110,20.3,110,32.9
		C110,45.5,120.3,55.7,132.9,55.7z M132.9,17.1c8.7,0,15.8,7.1,15.8,15.8s-7.1,15.8-15.8,15.8s-15.8-7.1-15.8-15.8
		S124.2,17.1,132.9,17.1z"/>
	<path fill="#30AA64" d="M132.9,60C120.3,60,110,70.3,110,82.9c0,12.6,10.3,22.9,22.9,22.9c12.6,0,22.9-10.3,22.9-22.9
		C155.7,70.3,145.5,60,132.9,60z M132.9,98.6c-8.7,0-15.8-7.1-15.8-15.8s7.1-15.8,15.8-15.8s15.8,7.1,15.8,15.8
		S141.6,98.6,132.9,98.6z"/>
	<path fill="#30AA64" d="M132.9,110c-10.6,0-19.6,7.3-22.2,17.2c-0.4,1.2-1.5,2.1-2.8,2.1c-1.3,0-2.5-0.9-2.8-2.1
		c-2.5-9.9-11.5-17.2-22.2-17.2c-10.6,0-19.6,7.3-22.2,17.2c-0.4,1.2-1.5,2.1-2.8,2.1c-1.3,0-2.5-0.9-2.8-2.1
		c-2.5-9.9-11.5-17.2-22.2-17.2C20.3,110,10,120.3,10,132.9c0,12.6,10.3,22.9,22.9,22.9c10.6,0,19.6-7.3,22.2-17.2
		c0.4-1.2,1.5-2.1,2.8-2.1c1.3,0,2.5,0.9,2.8,2.1c2.5,9.9,11.5,17.2,22.2,17.2c10.6,0,19.6-7.3,22.2-17.2c0.4-1.2,1.5-2.1,2.8-2.1
		c1.3,0,2.5,0.9,2.8,2.1c2.5,9.9,11.5,17.2,22.2,17.2c12.6,0,22.9-10.3,22.9-22.9C155.7,120.3,145.5,110,132.9,110z M147.9,135.4
		l-20,11.9c-2,1.2-4.5-0.2-4.5-2.5V121c0-2.3,2.5-3.7,4.5-2.5l20,11.9C149.8,131.5,149.8,134.3,147.9,135.4z"/>
</g>
<g>
</g>
<g>
</g>
<g>
</g>
<g>
</g>
<g>
</g>
<g>
</g>
</svg>
